Coordinates
version=1
nRows=30
nColumns=23
inDegrees=yes

Units are S.I. units (second, meters, Newtons, ...)
Angles are in degrees.

endheader
time	pelvis_tilt	pelvis_list	pelvis_rotation	pelvis_tx	pelvis_ty	pelvis_tz	hip_flexion_r	hip_adduction_r	hip_rotation_r	knee_angle_r	knee_angle_r_beta	ankle_angle_r	subtalar_angle_r	mtp_angle_r	hip_flexion_l	hip_adduction_l	hip_rotation_l	knee_angle_l	knee_angle_l_beta	ankle_angle_l	subtalar_angle_l	mtp_angle_l
    120.99555600	     17.95591736	      5.15569500	      2.11086096	      0.03407442	      1.27039513	      0.19037099	     20.18220956	    -16.05157399	     -5.04844608	     76.08878854	      1.32799988	    -15.07007862	      0.00000000	      0.00000000	     48.41211581	     -7.88406564	     -9.67742037	     89.21439284	      1.55708490	      1.66125468	      0.00000000	      0.00000000
    121.00444400	     18.30012924	      4.35218912	      1.82055962	      0.03445658	      1.27077302	      0.18918005	     20.73811730	    -15.30744705	     -4.60455154	     78.65314769	      1.37275639	    -14.05180239	      0.00000000	      0.00000000	     46.50501110	     -8.36052264	     -9.64570703	     86.59389009	      1.51134849	      2.05346335	      0.00000000	      0.00000000
    121.01333300	     18.64571853	      3.52560242	      1.54042945	      0.03480161	      1.27114978	      0.18786108	     21.35674239	    -14.56108109	     -4.19740279	     81.23094769	      1.41774749	    -13.09513442	      0.00000000	      0.00000000	     44.51465986	     -8.83679174	     -9.60120538	     83.88928911	      1.46414430	      2.36238317	      0.00000000	      0.00000000
    121.02222200	     18.96997074	      2.64787539	      1.22598823	      0.03517688	      1.27153493	      0.18650714	     22.07487988	    -13.76704209	     -3.80503919	     83.79893920	      1.46256740	    -12.20817126	      0.00000000	      0.00000000	     42.46725770	     -9.38751492	     -9.56371586	     81.13316774	      1.41604091	      2.56197591	      0.00000000	      0.00000000
    121.03111100	     19.26971484	      1.72424062	      0.90492964	      0.03545505	      1.27188633	      0.18508772	     22.90014586	    -12.93600083	     -3.45072121	     86.32927847	      1.50673015	    -11.43145751	      0.00000000	      0.00000000	     40.39176976	     -9.98547056	     -9.53773744	     78.33141376	      1.36714108	      2.64523240	      0.00000000	      0.00000000
    121.04000000	     19.53286287	      0.79545509	      0.60465504	      0.03572808	      1.27229779	      0.18355352	     23.82846980	    -12.14041798	     -3.15358368	     88.80458763	      1.54993245	    -10.82338685	      0.00000000	      0.00000000	     38.28647834	    -10.56586540	     -9.50780870	     75.46690349	      1.31714594	      2.64284012	      0.00000000	      0.00000000
    121.04888900	     19.74487623	     -0.17698958	      0.24871031	      0.03588875	      1.27262435	      0.18221576	     24.92661581	    -11.25306248	     -2.83863551	     91.24982464	      1.59260988	    -10.31818781	      0.00000000	      0.00000000	     36.20196835	    -11.25758787	     -9.54140524	     72.61520722	      1.26737445	      2.44671856	      0.00000000	      0.00000000
    121.05777800	     19.86605874	     -1.19000225	     -0.03318962	      0.03605539	      1.27294431	      0.18073464	     26.16621367	    -10.38491912	     -2.64451327	     93.58485944	      1.63336393	    -10.04645863	      0.00000000	      0.00000000	     34.20700578	    -11.93926821	     -9.50191508	     69.77261823	      1.21776192	      2.18688584	      0.00000000	      0.00000000
    121.06666700	     19.98455817	     -2.08885158	     -0.39565749	      0.03606457	      1.27330786	      0.17947678	     27.54160515	     -9.60787288	     -2.38792027	     95.87490512	      1.67333276	     -9.86627485	      0.00000000	      0.00000000	     32.13798264	    -12.58431545	     -9.65949959	     66.90739029	      1.16775425	      1.70232341	      0.00000000	      0.00000000
    121.07555600	     20.03146073	     -2.99496329	     -0.68273862	      0.03602342	      1.27365814	      0.17817373	     29.04379394	     -8.88042618	     -2.24580651	     98.03150175	      1.71097248	     -9.88735418	      0.00000000	      0.00000000	     30.16914596	    -13.22334543	     -9.80385280	     64.09635768	      1.11869248	      1.13889165	      0.00000000	      0.00000000
    121.08444400	     20.02532130	     -3.84530672	     -0.96930880	      0.03591576	      1.27392160	      0.17697832	     30.68858565	     -8.21707781	     -2.11825610	    100.10626082	      1.74718385	    -10.05786258	      0.00000000	      0.00000000	     28.26374864	    -13.83407871	    -10.01865580	     61.37004066	      1.07110927	      0.40186285	      0.00000000	      0.00000000
    121.09333300	     19.94094322	     -4.68120947	     -1.21149641	      0.03576417	      1.27416961	      0.17589302	     32.45990256	     -7.59538866	     -2.08764571	    102.02824328	      1.78072878	    -10.35434711	      0.00000000	      0.00000000	     26.48856626	    -14.45395748	    -10.26906998	     58.74938504	      1.02537020	     -0.45993057	      0.00000000	      0.00000000
    121.10222200	     19.80072431	     -5.47214094	     -1.40820028	      0.03556095	      1.27434241	      0.17486936	     34.33455863	     -7.05452663	     -2.12863273	    103.81054462	      1.81183580	    -10.75689419	      0.00000000	      0.00000000	     24.83825349	    -15.04784647	    -10.55096302	     56.27134324	      0.98212021	     -1.44608532	      0.00000000	      0.00000000
    121.11111100	     19.60364809	     -6.17828371	     -1.56962608	      0.03532194	      1.27446095	      0.17395589	     36.30434106	     -6.63780148	     -2.21786440	    105.44745362	      1.84040525	    -11.23970852	      0.00000000	      0.00000000	     23.31184303	    -15.57826612	    -10.87625851	     53.93430151	      0.94133114	     -2.54548066	      0.00000000	      0.00000000
    121.12000000	     19.37554945	     -6.86701796	     -1.65169895	      0.03508754	      1.27452407	      0.17308762	     38.29513044	     -6.29612486	     -2.43738136	    106.92237271	      1.86614745	    -11.75871504	      0.00000000	      0.00000000	     21.93101800	    -16.10303669	    -11.16662388	     51.80195390	      0.90411465	     -3.70256041	      0.00000000	      0.00000000
    121.12888900	     19.13325754	     -7.47095308	     -1.66362921	      0.03475976	      1.27446742	      0.17229753	     40.31482073	     -6.09206908	     -2.70234978	    108.25768917	      1.88945312	    -12.29970957	      0.00000000	      0.00000000	     20.68886271	    -16.56617951	    -11.46385978	     49.88049656	      0.87057890	     -4.95125203	      0.00000000	      0.00000000
    121.13777800	     18.86414390	     -7.95450434	     -1.60957488	      0.03448729	      1.27437879	      0.17155215	     42.33349967	     -6.06796260	     -3.00376869	    109.43958399	      1.91008107	    -12.81196120	      0.00000000	      0.00000000	     19.57467638	    -16.90586779	    -11.73442361	     48.15754628	      0.84050774	     -6.16563051	      0.00000000	      0.00000000
    121.14666700	     18.59510930	     -8.37115800	     -1.48039116	      0.03417328	      1.27423166	      0.17083483	     44.30988245	     -6.16821505	     -3.36139591	    110.47003806	      1.92806589	    -13.25892787	      0.00000000	      0.00000000	     18.59162939	    -17.18231218	    -11.92877588	     46.67581640	      0.81464668	     -7.33282633	      0.00000000	      0.00000000
    121.15555600	     18.34064722	     -8.70106095	     -1.27786827	      0.03383983	      1.27401004	      0.17023480	     46.21171905	     -6.39467795	     -3.75064185	    111.34812434	      1.94339139	    -13.61921189	      0.00000000	      0.00000000	     17.72952164	    -17.38621281	    -12.04948226	     45.43634385	      0.79301380	     -8.44284968	      0.00000000	      0.00000000
    121.16444400	     18.10942925	     -8.96205129	     -1.00818098	      0.03348930	      1.27378186	      0.16966624	     48.01203861	     -6.73339683	     -4.17302612	    112.07585972	      1.95609276	    -13.86800227	      0.00000000	      0.00000000	     16.97077221	    -17.52355948	    -12.07291159	     44.44758700	      0.77575674	     -9.46314286	      0.00000000	      0.00000000
    121.17333300	     18.23260530	     -9.35134573	     -0.63273250	      0.03275592	      1.27346378	      0.16915120	     49.34243967	     -7.00139055	     -4.76362002	    112.67865492	      1.96661353	    -13.95985781	      0.00000000	      0.00000000	     16.07898114	    -17.86519672	    -12.01095106	     44.06814781	      0.76913427	     -9.50379911	      0.00000000	      0.00000000
    121.18222200	     17.73815764	     -9.24768256	     -0.31634606	      0.03274003	      1.27329252	      0.16874848	     51.24315219	     -7.70055935	     -5.03443838	    113.07967897	      1.97361272	    -13.98172329	      0.00000000	      0.00000000	     15.73001928	    -17.59144188	    -11.85218876	     43.23655656	      0.75462027	    -11.10249362	      0.00000000	      0.00000000
    121.19111100	     17.85313436	     -9.43999668	     -0.03656364	      0.03215103	      1.27319615	      0.16857947	     52.38630492	     -8.01944131	     -5.49382707	    113.30169008	      1.97748754	    -13.97153935	      0.00000000	      0.00000000	     14.94073346	    -17.78948766	    -11.81150630	     43.18470925	      0.75371536	    -11.14149066	      0.00000000	      0.00000000
    121.20000000	     17.47885256	     -9.23838729	      0.45670166	      0.03192825	      1.27278878	      0.16824297	     53.94797239	     -8.88207565	     -5.81481544	    113.47096131	      1.98044188	    -13.61814152	      0.00000000	      0.00000000	     14.81746662	    -17.42258640	    -11.31906692	     43.06742383	      0.75166835	    -11.95829813	      0.00000000	      0.00000000
    121.20888900	     17.58298929	     -9.26585195	      0.61538140	      0.03147478	      1.27295159	      0.16843836	     54.87686365	     -9.15124877	     -6.12289135	    113.32649018	      1.97792038	    -13.54392621	      0.00000000	      0.00000000	     14.11660488	    -17.49812978	    -11.28248022	     43.27825002	      0.75534796	    -12.01588345	      0.00000000	      0.00000000
    121.21777800	     17.00770574	     -8.98146335	      1.14372782	      0.03133502	      1.27192004	      0.16846404	     56.45233670	    -10.04497159	     -6.43594182	    113.23864678	      1.97638723	    -13.02720125	      0.00000000	      0.00000000	     14.60357888	    -17.12788381	    -10.59622169	     44.10465712	      0.76977148	    -12.01373766	      0.00000000	      0.00000000
    121.22666700	     17.13550860	     -8.77284114	      1.34007958	      0.03078937	      1.27184291	      0.16893493	     57.17298619	    -10.44105263	     -6.60376873	    112.84768531	      1.96956366	    -12.81259509	      0.00000000	      0.00000000	     14.16791312	    -17.02271328	    -10.49059380	     44.91849301	      0.78397560	    -12.06902148	      0.00000000	      0.00000000
    121.23555600	     16.88982296	     -8.56506560	      1.77639561	      0.03047827	      1.27134569	      0.16914601	     58.07369677	    -11.06569240	     -6.96302898	    112.30020940	      1.96000840	    -12.33106290	      0.00000000	      0.00000000	     14.41835403	    -16.79870995	     -9.80233583	     46.15040128	      0.80547645	    -11.43484860	      0.00000000	      0.00000000
    121.24444400	     17.03037227	     -8.19601622	      1.89331556	      0.02998964	      1.27137104	      0.16998794	     58.52059568	    -11.38137519	     -6.98715665	    111.56214115	      1.94712668	    -12.08580757	      0.00000000	      0.00000000	     14.14155802	    -16.59194311	     -9.70590560	     47.39259153	      0.82715676	    -11.40462809	      0.00000000	      0.00000000
    121.25333300	     16.96115532	     -7.96468987	      2.26417453	      0.02964431	      1.27109876	      0.17043021	     58.93037398	    -11.84878831	     -7.34452506	    110.64079359	      1.93104614	    -11.68114387	      0.00000000	      0.00000000	     14.37941672	    -16.42215140	     -9.06195938	     49.08879193	      0.85676104	    -10.36384927	      0.00000000	      0.00000000
